# Blender v2.82 (sub 7) OBJ File: 'game level.blend'
# www.blender.org
mtllib pillar.mtl
o pillar_Cube.007
v 1.889835 5.258268 25.752386
v 1.889835 7.043926 25.752386
v 1.889835 5.258268 24.572525
v 3.856271 5.258268 25.752386
v 3.856271 7.043926 25.752386
v 3.856271 5.258268 24.572525
v 1.889835 7.043926 24.905584
v 1.889835 6.686223 24.572525
v 3.856271 6.686223 24.572525
v 3.856271 7.043926 24.905584
v 3.268545 5.549129 25.708046
v 3.250299 5.549129 25.736240
v 3.210549 5.549129 25.745352
v 3.174859 5.549129 25.733427
v 3.160304 5.549129 25.708046
v 3.174859 5.549129 25.682665
v 3.210549 5.549129 25.670740
v 3.250299 5.549129 25.679853
v 3.250413 16.863953 25.679853
v 3.210663 16.863953 25.670740
v 3.174973 16.863953 25.682665
v 3.160419 16.863953 25.708046
v 3.174973 16.863953 25.733427
v 3.210663 16.863953 25.745354
v 3.250413 16.863953 25.736240
v 3.268659 16.863953 25.708046
v 2.650333 5.549129 25.297695
v 2.632088 5.549129 25.325888
v 2.592337 5.549129 25.335001
v 2.556647 5.549129 25.323076
v 2.542093 5.549129 25.297695
v 2.556647 5.549129 25.272314
v 2.592337 5.549129 25.260389
v 2.632088 5.549129 25.269501
v 2.632202 16.863953 25.269501
v 2.592452 16.863953 25.260389
v 2.556761 16.863953 25.272314
v 2.542207 16.863953 25.297695
v 2.556761 16.863953 25.323076
v 2.592451 16.863953 25.335001
v 2.632202 16.863953 25.325888
v 2.650448 16.863953 25.297695
v 3.268545 5.549129 25.297695
v 3.250299 5.549129 25.325888
v 3.210549 5.549129 25.335001
v 3.174858 5.549129 25.323076
v 3.160304 5.549129 25.297695
v 3.174858 5.549129 25.272314
v 3.210549 5.549129 25.260389
v 3.250299 5.549129 25.269501
v 3.250413 16.863953 25.269501
v 3.210663 16.863953 25.260389
v 3.174973 16.863953 25.272314
v 3.160419 16.863953 25.297695
v 3.174973 16.863953 25.323076
v 3.210663 16.863953 25.335001
v 3.250413 16.863953 25.325888
v 3.268659 16.863953 25.297695
v 2.650333 5.549129 25.708046
v 2.632088 5.549129 25.736240
v 2.592337 5.549129 25.745352
v 2.556647 5.549129 25.733427
v 2.542093 5.549129 25.708046
v 2.556647 5.549129 25.682665
v 2.592337 5.549129 25.670740
v 2.632088 5.549129 25.679853
v 2.632202 16.863953 25.679853
v 2.592452 16.863953 25.670740
v 2.556761 16.863953 25.682665
v 2.542207 16.863953 25.708046
v 2.556761 16.863953 25.733427
v 2.592452 16.863953 25.745352
v 2.632202 16.863953 25.736240
v 2.650448 16.863953 25.708046
v 3.856271 17.056887 25.752386
v 3.856270 15.271229 25.752386
v 3.856271 17.056887 24.572527
v 1.889835 17.056889 25.752386
v 1.889835 15.271230 25.752386
v 1.889835 17.056889 24.572527
v 3.856270 15.271229 24.905586
v 3.856271 15.628932 24.572527
v 1.889835 15.628933 24.572527
v 1.889835 15.271230 24.905586
vt 0.574920 0.250000
vt 0.375000 0.500000
vt 0.375000 0.250000
vt 0.574920 0.500000
vt 0.625000 0.750000
vt 0.375000 0.750000
vt 0.375000 1.000000
vt 0.125000 0.750000
vt 0.125000 0.500000
vt 0.625000 0.000000
vt 0.625000 0.179428
vt 0.625000 0.570572
vt 0.875000 0.500000
vt 0.875000 0.570572
vt 0.375000 0.250000
vt 0.574920 0.500000
vt 0.375000 0.500000
vt 0.625000 0.750000
vt 0.375000 0.750000
vt 0.375000 1.000000
vt 0.125000 0.750000
vt 0.125000 0.500000
vt 0.625000 0.000000
vt 0.625000 0.179428
vt 0.574920 0.250000
vt 0.875000 0.570572
vt 0.625000 0.500000
vt 0.875000 0.500000
vt 0.625000 0.570572
vt 0.625000 1.000000
vt 0.375000 0.000000
vt 0.625000 0.500000
vt 0.875000 0.750000
vt 0.625000 1.000000
vt 0.375000 0.000000
vt 0.875000 0.750000
vt 1.000000 0.125000
vt 1.000000 0.250000
vt 1.000000 0.250000
vt 1.000000 0.375000
vt 1.000000 0.375000
vt 1.000000 0.500000
vt 1.000000 0.500000
vt 1.000000 0.000000
vt 1.000000 0.125000
vt 1.000000 0.625000
vt 1.000000 0.750000
vt 1.000000 0.750000
vt 1.000000 0.875000
vt 1.000000 0.875000
vt 1.000000 1.000000
vt 1.000000 1.000000
vt 1.000000 0.625000
vt 1.000000 0.125000
vt 1.000000 0.250000
vt 1.000000 0.250000
vt 1.000000 0.375000
vt 1.000000 0.375000
vt 1.000000 0.500000
vt 1.000000 0.500000
vt 1.000000 0.000000
vt 1.000000 0.125000
vt 1.000000 0.625000
vt 1.000000 0.750000
vt 1.000000 0.750000
vt 1.000000 0.875000
vt 1.000000 0.875000
vt 1.000000 1.000000
vt 1.000000 1.000000
vt 1.000000 0.625000
vt 1.000000 0.125000
vt 1.000000 0.250000
vt 1.000000 0.250000
vt 1.000000 0.375000
vt 1.000000 0.375000
vt 1.000000 0.500000
vt 1.000000 0.500000
vt 1.000000 0.000000
vt 1.000000 0.125000
vt 1.000000 0.625000
vt 1.000000 0.750000
vt 1.000000 0.750000
vt 1.000000 0.875000
vt 1.000000 0.875000
vt 1.000000 1.000000
vt 1.000000 1.000000
vt 1.000000 0.625000
vt 1.000000 0.125000
vt 1.000000 0.250000
vt 1.000000 0.250000
vt 1.000000 0.375000
vt 1.000000 0.375000
vt 1.000000 0.500000
vt 1.000000 0.500000
vt 1.000000 0.000000
vt 1.000000 0.125000
vt 1.000000 0.625000
vt 1.000000 0.750000
vt 1.000000 0.750000
vt 1.000000 0.875000
vt 1.000000 0.875000
vt 1.000000 1.000000
vt 1.000000 1.000000
vt 1.000000 0.625000
vt 1.000000 0.000000
vt 1.000000 0.000000
vt 1.000000 0.000000
vt 1.000000 0.000000
vn 0.0000 0.0000 -1.0000
vn 1.0000 0.0000 0.0000
vn 0.0000 0.0000 1.0000
vn 0.0000 -1.0000 0.0000
vn -1.0000 -0.0000 0.0000
vn 0.0000 0.6814 -0.7319
vn 0.0000 1.0000 0.0000
vn -0.0000 -0.6814 -0.7319
vn -0.6336 0.0000 -0.7736
vn -0.0486 0.0000 -0.9988
vn -0.0485 0.0000 -0.9988
vn 0.5736 0.0000 -0.8191
vn -0.6337 0.0000 -0.7736
vn 0.5736 0.0000 0.8191
vn -0.0486 0.0000 0.9988
vn -0.0484 0.0000 0.9988
vn -0.6337 0.0000 0.7735
vn -0.6337 0.0000 0.7736
vn -1.0000 0.0000 -0.0001
vn 0.5735 0.0000 0.8191
vn -0.6336 0.0000 0.7736
vn -0.0484 0.0000 -0.9988
vn 1.0000 0.0000 0.0001
vn -0.0485 0.0000 0.9988
vn 0.5735 0.0000 -0.8191
usemtl None
s off
f 8/1/1 6/2/1 3/3/1
f 9/4/2 5/5/2 4/6/2
f 5/5/3 1/7/3 4/6/3
f 6/2/4 1/8/4 3/9/4
f 2/10/5 7/11/5 8/1/5
f 10/12/6 8/13/6 7/14/6
f 7/14/7 5/5/7 10/12/7
f 77/15/1 83/16/1 80/17/1
f 83/16/5 79/18/5 78/19/5
f 79/18/3 75/20/3 78/19/3
f 80/17/7 75/21/7 77/22/7
f 76/23/2 81/24/2 82/25/2
f 81/26/8 83/27/8 82/28/8
f 81/26/4 79/18/4 84/29/4
f 8/1/1 9/4/1 6/2/1
f 4/6/2 6/2/2 9/4/2
f 9/4/2 10/12/2 5/5/2
f 5/5/3 2/30/3 1/7/3
f 6/2/4 4/6/4 1/8/4
f 3/3/5 1/31/5 8/1/5
f 1/31/5 2/10/5 8/1/5
f 10/12/6 9/32/6 8/13/6
f 7/14/7 2/33/7 5/5/7
f 77/15/1 82/25/1 83/16/1
f 78/19/5 80/17/5 83/16/5
f 83/16/5 84/29/5 79/18/5
f 79/18/3 76/34/3 75/20/3
f 80/17/7 78/19/7 75/21/7
f 77/15/2 75/35/2 82/25/2
f 75/35/2 76/23/2 82/25/2
f 81/26/8 84/29/8 83/27/8
f 81/26/4 76/36/4 79/18/4
s 1
f 16/37/9 20/38/10 17/39/11
f 17/39/11 19/40/12 18/41/12
f 18/41/12 26/42/2 11/43/2
f 15/44/5 21/45/13 16/37/9
f 12/46/14 24/47/15 13/48/16
f 13/48/16 23/49/17 14/50/18
f 14/50/18 22/51/5 15/52/5
f 11/43/2 25/53/14 12/46/14
f 32/54/13 36/55/11 33/56/10
f 33/56/10 35/57/12 34/58/12
f 34/58/12 42/59/2 27/60/2
f 31/61/19 37/62/13 32/54/13
f 28/63/20 40/64/16 29/65/15
f 29/65/15 39/66/21 30/67/18
f 31/68/19 39/66/21 38/69/5
f 27/60/2 41/70/14 28/63/20
f 48/71/13 52/72/22 49/73/10
f 49/73/10 51/74/12 50/75/12
f 50/75/12 58/76/2 43/77/23
f 47/78/5 53/79/13 48/71/13
f 44/80/20 56/81/24 45/82/15
f 45/82/15 55/83/21 46/84/18
f 46/84/18 54/85/5 47/86/5
f 43/77/23 57/87/20 44/80/20
f 64/88/13 68/89/11 65/90/10
f 65/90/10 67/91/12 66/92/25
f 66/92/25 74/93/2 59/94/2
f 64/88/13 70/95/5 69/96/13
f 60/97/14 72/98/15 61/99/24
f 61/99/24 71/100/18 62/101/17
f 62/101/17 70/102/5 63/103/19
f 59/94/2 73/104/14 60/97/14
f 16/37/9 21/45/13 20/38/10
f 17/39/11 20/38/10 19/40/12
f 18/41/12 19/40/12 26/42/2
f 15/44/5 22/105/5 21/45/13
f 12/46/14 25/53/14 24/47/15
f 13/48/16 24/47/15 23/49/17
f 14/50/18 23/49/17 22/51/5
f 11/43/2 26/42/2 25/53/14
f 32/54/13 37/62/13 36/55/11
f 33/56/10 36/55/11 35/57/12
f 34/58/12 35/57/12 42/59/2
f 31/61/19 38/106/5 37/62/13
f 28/63/20 41/70/14 40/64/16
f 29/65/15 40/64/16 39/66/21
f 31/68/19 30/67/18 39/66/21
f 27/60/2 42/59/2 41/70/14
f 48/71/13 53/79/13 52/72/22
f 49/73/10 52/72/22 51/74/12
f 50/75/12 51/74/12 58/76/2
f 47/78/5 54/107/5 53/79/13
f 44/80/20 57/87/20 56/81/24
f 45/82/15 56/81/24 55/83/21
f 46/84/18 55/83/21 54/85/5
f 43/77/23 58/76/2 57/87/20
f 64/88/13 69/96/13 68/89/11
f 65/90/10 68/89/11 67/91/12
f 66/92/25 67/91/12 74/93/2
f 64/88/13 63/108/19 70/95/5
f 60/97/14 73/104/14 72/98/15
f 61/99/24 72/98/15 71/100/18
f 62/101/17 71/100/18 70/102/5
f 59/94/2 74/93/2 73/104/14
