# Blender v2.82 (sub 7) OBJ File: 'game level.blend'
# www.blender.org
mtllib room.mtl
o room_floor_Cube
v -12.268509 5.346905 18.649477
v -12.268509 17.145523 18.649477
v -12.268509 5.346905 6.850858
v -12.268509 17.145523 6.850858
v 18.014614 5.346905 18.649477
v 18.014614 17.145523 18.649477
v 18.014614 5.346905 6.850858
v 18.014614 17.145523 6.850858
vt 0.625000 0.000000
vt 0.375000 0.250000
vt 0.375000 0.000000
vt 0.625000 0.250000
vt 0.375000 0.500000
vt 0.625000 0.500000
vt 0.375000 0.750000
vt 0.125000 0.750000
vt 0.125000 0.500000
vt 0.875000 0.500000
vt 0.625000 0.750000
vt 0.875000 0.750000
vn -1.0000 0.0000 0.0000
vn 0.0000 0.0000 -1.0000
vn 1.0000 0.0000 0.0000
vn 0.0000 -1.0000 0.0000
vn 0.0000 1.0000 0.0000
usemtl None
s off
f 2/1/1 3/2/1 1/3/1
f 4/4/2 7/5/2 3/2/2
f 8/6/3 5/7/3 7/5/3
f 7/5/4 1/8/4 3/9/4
f 4/10/5 6/11/5 8/6/5
f 2/1/1 4/4/1 3/2/1
f 4/4/2 8/6/2 7/5/2
f 8/6/3 6/11/3 5/7/3
f 7/5/4 5/7/4 1/8/4
f 4/10/5 2/12/5 6/11/5
